<?xml version="1.0" encoding="UTF-8" standalone="no"?>
<!-- Created with Inkscape (http://www.inkscape.org/) -->

<svg
   xmlns:dc="http://purl.org/dc/elements/1.1/"
   xmlns:cc="http://creativecommons.org/ns#"
   xmlns:rdf="http://www.w3.org/1999/02/22-rdf-syntax-ns#"
   xmlns:svg="http://www.w3.org/2000/svg"
   xmlns="http://www.w3.org/2000/svg"
   xmlns:sodipodi="http://sodipodi.sourceforge.net/DTD/sodipodi-0.dtd"
   xmlns:inkscape="http://www.inkscape.org/namespaces/inkscape"
   width="420mm"
   height="594mm"
   viewBox="0 0 1488.189 2104.7244"
   id="svg2"
   version="1.1"
   inkscape:version="0.92.2 (5c3e80d, 2017-08-06)"
   sodipodi:docname="FlowerPot_v1.svg">
  <sodipodi:namedview
     id="base"
     pagecolor="#ffffff"
     bordercolor="#666666"
     borderopacity="1.0"
     inkscape:pageopacity="0.0"
     inkscape:pageshadow="2"
     inkscape:zoom="0.49497475"
     inkscape:cx="557.88588"
     inkscape:cy="1831.3778"
     inkscape:document-units="px"
     inkscape:current-layer="layer1"
     showgrid="false"
     inkscape:window-width="1920"
     inkscape:window-height="1138"
     inkscape:window-x="-8"
     inkscape:window-y="-8"
     inkscape:window-maximized="1" />
  <defs
     id="defs4" />
  <metadata
     id="metadata7">
    <rdf:RDF>
      <cc:Work
         rdf:about="">
        <dc:format>image/svg+xml</dc:format>
        <dc:type
           rdf:resource="http://purl.org/dc/dcmitype/StillImage" />
        <dc:title />
      </cc:Work>
    </rdf:RDF>
  </metadata>
  <g
     inkscape:label="Layer 1"
     inkscape:groupmode="layer"
     id="layer1"
     transform="translate(0,1052.3622)">
    <g
       id="g5971"
       inkscape:label="Piece1"
       transform="translate(2.8571428,-1045.7143)"
       style="stroke:#000000;stroke-width:0.07086614;stroke-miterlimit:4;stroke-dasharray:none;stroke-opacity:1">
      <path
         id="path5973"
         d="m 210.47244,609.80315 h 42.87402 v -14.17323 h 41.81102 v 14.17323 h 43.22835 v -14.17323 h 41.81102 v 14.17323 h 43.22835 v -14.17323 h 41.81102 v 14.17323 h 43.22835 v -14.17323 h 41.81102 v 14.17323 h 42.87402"
         style="fill:none;stroke:#000000;stroke-width:0.07086614;stroke-miterlimit:4;stroke-dasharray:none;stroke-opacity:1"
         inkscape:label="part"
         inkscape:connector-curvature="0" />
      <path
         id="path5975"
         d="m 593.14961,609.80315 v 26.5748 h -14.17323 v 41.81103 h 14.17323 v 40.3937 h -14.17323 v 41.81102 h 14.17323 v 26.5748"
         style="fill:none;stroke:#000000;stroke-width:0.07086614;stroke-miterlimit:4;stroke-dasharray:none;stroke-opacity:1"
         inkscape:label="part"
         inkscape:connector-curvature="0" />
      <path
         id="path5977"
         d="m 593.14961,786.9685 h -42.87402 v 14.17323 H 508.46457 V 786.9685 h -43.22835 v 14.17323 H 423.4252 V 786.9685 h -43.22835 v 14.17323 H 338.38583 V 786.9685 h -43.22835 v 14.17323 H 253.34646 V 786.9685 h -42.87402"
         style="fill:none;stroke:#000000;stroke-width:0.07086614;stroke-miterlimit:4;stroke-dasharray:none;stroke-opacity:1"
         inkscape:label="part"
         inkscape:connector-curvature="0" />
      <path
         id="path5979"
         d="m 210.47244,786.9685 v -26.5748 h 14.17323 v -41.81102 h -14.17323 v -40.3937 h 14.17323 v -41.81103 h -14.17323 v -26.5748"
         style="fill:none;stroke:#000000;stroke-width:0.07086614;stroke-miterlimit:4;stroke-dasharray:none;stroke-opacity:1"
         inkscape:label="part"
         inkscape:connector-curvature="0" />
    </g>
    <g
       id="g5981"
       inkscape:label="Piece2"
       transform="translate(2.8571428,-1045.7143)"
       style="stroke:#000000;stroke-width:0.07086614;stroke-miterlimit:4;stroke-dasharray:none;stroke-opacity:1">
      <path
         id="path5983"
         d="m 16.653543,224.64567 h 27.283465 v -14.17323 h 40.393701 v 14.17323 h 41.811021 v -14.17323 h 40.3937 v 14.17323 h 27.28347"
         style="fill:none;stroke:#000000;stroke-width:0.07086614;stroke-miterlimit:4;stroke-dasharray:none;stroke-opacity:1"
         inkscape:label="part"
         inkscape:connector-curvature="0" />
      <path
         id="path5985"
         d="m 193.8189,224.64567 v 28.70079 h 14.17323 v 41.81102 H 193.8189 v 43.22835 h 14.17323 v 41.81102 H 193.8189 v 43.22835 h 14.17323 v 41.81102 H 193.8189 v 43.22835 h 14.17323 v 41.81102 H 193.8189 v 28.70079"
         style="fill:none;stroke:#000000;stroke-width:0.07086614;stroke-miterlimit:4;stroke-dasharray:none;stroke-opacity:1"
         inkscape:label="part"
         inkscape:connector-curvature="0" />
      <path
         id="path5987"
         d="m 193.8189,578.97638 h -27.28347 v 14.17323 h -40.3937 V 578.97638 H 84.330709 v 14.17323 H 43.937008 V 578.97638 H 16.653543"
         style="fill:none;stroke:#000000;stroke-width:0.07086614;stroke-miterlimit:4;stroke-dasharray:none;stroke-opacity:1"
         inkscape:label="part"
         inkscape:connector-curvature="0" />
      <path
         id="path5989"
         d="M 16.653543,578.97638 V 550.27559 H 2.4803149 V 508.46457 H 16.653543 V 465.23622 H 2.4803149 V 423.4252 H 16.653543 V 380.19685 H 2.4803149 V 338.38583 H 16.653543 V 295.15748 H 2.4803149 V 253.34646 H 16.653543 v -28.70079"
         style="fill:none;stroke:#000000;stroke-width:0.07086614;stroke-miterlimit:4;stroke-dasharray:none;stroke-opacity:1"
         inkscape:label="part"
         inkscape:connector-curvature="0" />
    </g>
    <g
       id="g5991"
       inkscape:label="Piece3"
       transform="translate(2.8571428,-1045.7143)"
       style="stroke:#000000;stroke-width:0.07086614;stroke-miterlimit:4;stroke-dasharray:none;stroke-opacity:1">
      <path
         id="path5993"
         d="m 210.47244,210.47244 h 42.16536 v 14.17323 h 43.22834 v -14.17323 h 41.81103 v 14.17323 h 43.22834 v -14.17323 h 41.81103 v 14.17323 h 43.22834 v -14.17323 h 41.81103 v 14.17323 h 43.22834 v -14.17323 h 42.16536"
         style="fill:none;stroke:#000000;stroke-width:0.07086614;stroke-miterlimit:4;stroke-dasharray:none;stroke-opacity:1"
         inkscape:label="part"
         inkscape:connector-curvature="0" />
      <path
         id="path5995"
         d="m 593.14961,210.47244 v 42.16536 h -14.17323 v 43.22834 h 14.17323 v 41.81103 h -14.17323 v 43.22834 h 14.17323 v 41.81103 h -14.17323 v 43.22834 h 14.17323 v 41.81103 h -14.17323 v 43.22834 h 14.17323 v 42.16536"
         style="fill:none;stroke:#000000;stroke-width:0.07086614;stroke-miterlimit:4;stroke-dasharray:none;stroke-opacity:1"
         inkscape:label="part"
         inkscape:connector-curvature="0" />
      <path
         id="path5997"
         d="m 593.14961,593.14961 h -42.16536 v -14.17323 h -43.22834 v 14.17323 h -41.81103 v -14.17323 h -43.22834 v 14.17323 h -41.81103 v -14.17323 h -43.22834 v 14.17323 H 295.86614 V 578.97638 H 252.6378 v 14.17323 h -42.16536"
         style="fill:none;stroke:#000000;stroke-width:0.07086614;stroke-miterlimit:4;stroke-dasharray:none;stroke-opacity:1"
         inkscape:label="part"
         inkscape:connector-curvature="0" />
      <path
         id="path5999"
         d="m 210.47244,593.14961 v -42.16536 h 14.17323 v -43.22834 h -14.17323 v -41.81103 h 14.17323 v -43.22834 h -14.17323 v -41.81103 h 14.17323 v -43.22834 h -14.17323 v -41.81103 h 14.17323 V 252.6378 h -14.17323 v -42.16536"
         style="fill:none;stroke:#000000;stroke-width:0.07086614;stroke-miterlimit:4;stroke-dasharray:none;stroke-opacity:1"
         inkscape:label="part"
         inkscape:connector-curvature="0" />
    </g>
    <g
       id="g6001"
       inkscape:label="Piece4"
       transform="translate(2.8571428,-1045.7143)"
       style="stroke:#000000;stroke-width:0.07086614;stroke-miterlimit:4;stroke-dasharray:none;stroke-opacity:1">
      <path
         id="path6003"
         d="m 609.80315,224.64567 h 27.28346 v -14.17323 h 40.3937 v 14.17323 h 41.81103 v -14.17323 h 40.3937 v 14.17323 h 27.28346"
         style="fill:none;stroke:#000000;stroke-width:0.07086614;stroke-miterlimit:4;stroke-dasharray:none;stroke-opacity:1"
         inkscape:label="part"
         inkscape:connector-curvature="0" />
      <path
         id="path6005"
         d="m 786.9685,224.64567 v 28.70079 h 14.17323 v 41.81102 H 786.9685 v 43.22835 h 14.17323 v 41.81102 H 786.9685 v 43.22835 h 14.17323 v 41.81102 H 786.9685 v 43.22835 h 14.17323 v 41.81102 H 786.9685 v 28.70079"
         style="fill:none;stroke:#000000;stroke-width:0.07086614;stroke-miterlimit:4;stroke-dasharray:none;stroke-opacity:1"
         inkscape:label="part"
         inkscape:connector-curvature="0" />
      <path
         id="path6007"
         d="m 786.9685,578.97638 h -27.28346 v 14.17323 h -40.3937 v -14.17323 h -41.81103 v 14.17323 h -40.3937 v -14.17323 h -27.28346"
         style="fill:none;stroke:#000000;stroke-width:0.07086614;stroke-miterlimit:4;stroke-dasharray:none;stroke-opacity:1"
         inkscape:label="part"
         inkscape:connector-curvature="0" />
      <path
         id="path6009"
         d="m 609.80315,578.97638 v -28.70079 h -14.17323 v -41.81102 h 14.17323 V 465.23622 H 595.62992 V 423.4252 h 14.17323 v -43.22835 h -14.17323 v -41.81102 h 14.17323 v -43.22835 h -14.17323 v -41.81102 h 14.17323 v -28.70079"
         style="fill:none;stroke:#000000;stroke-width:0.07086614;stroke-miterlimit:4;stroke-dasharray:none;stroke-opacity:1"
         inkscape:label="part"
         inkscape:connector-curvature="0" />
    </g>
    <g
       id="g6011"
       inkscape:label="Piece5"
       transform="translate(2.8571428,-1045.7143)"
       style="stroke:#000000;stroke-width:0.07086614;stroke-miterlimit:4;stroke-dasharray:none;stroke-opacity:1">
      <path
         id="path6013"
         d="m 803.62205,210.47244 h 42.16535 v 14.17323 h 43.22835 v -14.17323 h 41.81102 v 14.17323 h 43.22835 v -14.17323 h 41.81098 v 14.17323 h 43.2284 v -14.17323 h 41.811 v 14.17323 h 43.2284 v -14.17323 h 42.1653"
         style="fill:none;stroke:#000000;stroke-width:0.07086614;stroke-miterlimit:4;stroke-dasharray:none;stroke-opacity:1"
         inkscape:label="part"
         inkscape:connector-curvature="0" />
      <path
         id="path6015"
         d="m 1186.2992,210.47244 v 42.16536 h -14.1732 v 43.22834 h 14.1732 v 41.81103 h -14.1732 v 43.22834 h 14.1732 v 41.81103 h -14.1732 v 43.22834 h 14.1732 v 41.81103 h -14.1732 v 43.22834 h 14.1732 v 42.16536"
         style="fill:none;stroke:#000000;stroke-width:0.07086614;stroke-miterlimit:4;stroke-dasharray:none;stroke-opacity:1"
         inkscape:label="part"
         inkscape:connector-curvature="0" />
      <path
         id="path6017"
         d="m 1186.2992,593.14961 h -42.1653 v -14.17323 h -43.2284 v 14.17323 h -41.811 v -14.17323 h -43.2284 v 14.17323 h -41.81098 v -14.17323 h -43.22835 v 14.17323 H 889.01575 V 578.97638 H 845.7874 v 14.17323 h -42.16535"
         style="fill:none;stroke:#000000;stroke-width:0.07086614;stroke-miterlimit:4;stroke-dasharray:none;stroke-opacity:1"
         inkscape:label="part"
         inkscape:connector-curvature="0" />
      <path
         id="path6019"
         d="m 803.62205,593.14961 v -42.16536 h 14.17323 v -43.22834 h -14.17323 v -41.81103 h 14.17323 v -43.22834 h -14.17323 v -41.81103 h 14.17323 v -43.22834 h -14.17323 v -41.81103 h 14.17323 V 252.6378 h -14.17323 v -42.16536"
         style="fill:none;stroke:#000000;stroke-width:0.07086614;stroke-miterlimit:4;stroke-dasharray:none;stroke-opacity:1"
         inkscape:label="part"
         inkscape:connector-curvature="0" />
    </g>
    <g
       id="g6021"
       inkscape:label="Piece6"
       transform="translate(2.8571428,-1045.7143)"
       style="stroke:#000000;stroke-width:0.07086614;stroke-miterlimit:4;stroke-dasharray:none;stroke-opacity:1">
      <path
         id="path6023"
         d="m 210.47244,16.653543 h 42.87402 V 2.4803149 h 41.81102 V 16.653543 h 43.22835 V 2.4803149 h 41.81102 V 16.653543 H 423.4252 V 2.4803149 h 41.81102 V 16.653543 h 43.22835 V 2.4803149 h 41.81102 V 16.653543 h 42.87402"
         style="fill:none;stroke:#000000;stroke-width:0.07086614;stroke-miterlimit:4;stroke-dasharray:none;stroke-opacity:1"
         inkscape:label="part"
         inkscape:connector-curvature="0" />
      <path
         id="path6025"
         d="M 593.14961,16.653543 V 43.228346 H 578.97638 V 85.03937 h 14.17323 v 40.3937 h -14.17323 v 41.81102 h 14.17323 v 26.57481"
         style="fill:none;stroke:#000000;stroke-width:0.07086614;stroke-miterlimit:4;stroke-dasharray:none;stroke-opacity:1"
         inkscape:label="part"
         inkscape:connector-curvature="0" />
      <path
         id="path6027"
         d="m 593.14961,193.8189 h -42.87402 v 14.17323 H 508.46457 V 193.8189 h -43.22835 v 14.17323 H 423.4252 V 193.8189 h -43.22835 v 14.17323 H 338.38583 V 193.8189 h -43.22835 v 14.17323 H 253.34646 V 193.8189 h -42.87402"
         style="fill:none;stroke:#000000;stroke-width:0.07086614;stroke-miterlimit:4;stroke-dasharray:none;stroke-opacity:1"
         inkscape:label="part"
         inkscape:connector-curvature="0" />
      <path
         id="path6029"
         d="m 210.47244,193.8189 v -26.57481 h 14.17323 v -41.81102 h -14.17323 v -40.3937 h 14.17323 V 43.228346 H 210.47244 V 16.653543"
         style="fill:none;stroke:#000000;stroke-width:0.07086614;stroke-miterlimit:4;stroke-dasharray:none;stroke-opacity:1"
         inkscape:label="part"
         inkscape:connector-curvature="0" />
    </g>
    <ellipse
       style="opacity:1;fill:none;fill-opacity:1;fill-rule:nonzero;stroke:#000000;stroke-width:0.07086614;stroke-linecap:butt;stroke-linejoin:miter;stroke-miterlimit:4;stroke-dasharray:none;stroke-dashoffset:0;stroke-opacity:1"
       id="path6653"
       cx="1000.1572"
       cy="-644.1449"
       rx="35.818539"
       ry="36.25" />
  </g>
  <g
     inkscape:label="newlayer"
     inkscape:groupmode="layer"
     id="g4201"
     transform="translate(0,1052.3622)" />
  <g
     id="g4303"
     inkscape:groupmode="layer"
     inkscape:label="newlayer"
     transform="translate(0,1052.3622)" />
  <g
     inkscape:label="newlayer"
     inkscape:groupmode="layer"
     id="g4377"
     transform="translate(0,1052.3622)" />
  <g
     id="g4483"
     inkscape:groupmode="layer"
     inkscape:label="newlayer"
     transform="translate(0,1052.3622)" />
  <g
     inkscape:label="newlayer"
     inkscape:groupmode="layer"
     id="g4606"
     transform="translate(0,1052.3622)" />
  <g
     id="g4716"
     inkscape:groupmode="layer"
     inkscape:label="newlayer"
     transform="translate(0,1052.3622)" />
  <g
     inkscape:label="newlayer"
     inkscape:groupmode="layer"
     id="g4828"
     transform="translate(0,1052.3622)" />
  <g
     id="g4972"
     inkscape:groupmode="layer"
     inkscape:label="newlayer"
     transform="translate(0,1052.3622)" />
  <g
     inkscape:label="newlayer"
     inkscape:groupmode="layer"
     id="g5118"
     transform="translate(0,1052.3622)" />
  <g
     id="g5236"
     inkscape:groupmode="layer"
     inkscape:label="newlayer"
     transform="translate(0,1052.3622)" />
  <g
     inkscape:label="newlayer"
     inkscape:groupmode="layer"
     id="g5356"
     transform="translate(0,1052.3622)" />
  <g
     id="g5478"
     inkscape:groupmode="layer"
     inkscape:label="newlayer"
     transform="translate(0,1052.3622)" />
  <g
     inkscape:label="newlayer"
     inkscape:groupmode="layer"
     id="g5632"
     transform="translate(0,1052.3622)" />
  <g
     id="g5788"
     inkscape:groupmode="layer"
     inkscape:label="newlayer"
     transform="translate(0,1052.3622)" />
  <g
     inkscape:label="newlayer"
     inkscape:groupmode="layer"
     id="g5916"
     transform="translate(0,1052.3622)" />
  <g
     id="g6046"
     inkscape:groupmode="layer"
     inkscape:label="newlayer"
     transform="translate(0,1052.3622)" />
</svg>
